<?xml version="1.0" encoding="UTF-8"?>
<svg id="Layer_1_Outlines" data-name="Layer 1 Outlines" xmlns="http://www.w3.org/2000/svg" viewBox="0 0 1329.32 489.82">
  <g>
    <path d="M356.85,117.73c19.8-2.96,18.6,12.64,15.9,13.08-34.8,5.33-75.6,90.93-97.8,159.18,6-.54,11.7-1.39,16.5-2.76,10.2-2.84,8.7,11.8-4.2,15.39-5.7,1.51-11.4,2.67-17.1,3.5-6.9,23.84-11.1,44.12-11.1,55.4,0,11.93,4.2,18.39,10.5,17.4,17.7-2.82,50.7-65.33,58.5-83.79,2.1.6,4.2,1.2,6.3,1.8-8.1,17.67-41.4,127.74-91.5,135.79-17.1,2.62-25.2-12.53-25.2-34.28,0-20.13,6.9-53.5,18.6-90.27-12.3-.36-24.3-.88-36.6-1.49-45,77.03-89.7,152.65-140.4,155.3-29.4,1.46-48.9-22.31-48.9-48.18,0-13.78,5.7-25.89,10.5-25.93,3-.07,9.3,22.17,35.1,21.25,36.6-1.43,73.5-47.33,111.9-101.85-12,1.19-42,3.72-45.6,20.39-.3,1.01-.3,1.67-.9,1.71-9,.61-16.8-5.24-16.8-17.81,0-23.78,27.6-26.64,37.5-27.44,12-.87,26.1-.05,41.1,1.11,35.1-50.76,71.4-104.54,109.5-136.93-23.4-1.82-42.6-2.64-59.7-.93-54.3,5.25-86.7,36.07-86.7,70.41,0,18.08,9,22.72,17.4,22.06,9.6-.76,10.5-5.76,13.2-5.98,1.8-.15,2.4.78,2.4,2.41,0,15.98-16.5,33.54-35.4,34.9-29.7,2.11-42.3-25.01-42.3-51.8,0-40.11,33.6-85.71,109.5-91.72,38.4-3.41,58.8,6.11,107.4,2.22,13.2-6.9,24.6-10.09,38.4-12.14ZM241.95,290.29c17.1-49.73,41.7-102.7,67.5-136.54-34.8,27.7-66.9,79.84-98.7,134.13,10.5,1.1,21.3,1.74,31.2,2.41Z"/>
    <path d="M372.44,359.38c0-7.27,1.8-16.16,4.2-24.52-13.5,24.39-31.2,50.06-48.9,53.33-11.4,2.1-19.2-4.84-19.2-24.34,0-52.96,57.6-150.6,98.1-157.78,12.9-2.34,18.9,5.3,20.1,16.03,16.5-34.14,28.5-62.22,28.5-72.19,0-5.61-1.8-6.21-1.8-8.39,0-3.43,5.1-6.22,15.6-8.18,9-1.67,16.8.87,16.8,7.68,0,21.96-78.6,161.05-78.6,190.92,0,4.4,1.8,6.54,5.1,5.86,14.4-3.01,42-51.32,46.8-62.86,1.8.45,3.6.91,5.4,1.36-6.6,13.38-41.7,92.83-73.2,99.47-12.6,2.59-18.9-2.8-18.9-16.4ZM416.54,239.39c2.7-8.36,1.8-18.2-7.8-16.43-24.9,4.49-64.2,85.41-64.2,117.3,0,7.31,2.1,10.41,6,9.69,14.7-2.78,39-50.43,43.8-62.02,6.9-15.81,14.4-32.32,22.2-48.55Z"/>
    <path d="M482.84,207.63c0-5.58-1.8-6.15-1.8-8.32,0-3.41,5.1-6.29,12.9-7.87,11.7-2.37,19.5.03,19.5,8.35,0,20.54-39.6,94.93-39.6,118.33,0,4.04,1.8,6.12,5.1,5.39,17.7-3.96,40.5-42.24,58.2-80.5,1.8-14.23,6.9-62.88,26.7-67.05,6.9-1.47,13.2,1.75,13.2,11.81,0,15.83-16.2,49.62-25.5,66.44-1.2,9.76,0,16.85,7.2,15.2,6.6-1.51,13.2-9.45,20.4-23.28,2.2.31,4.4.62,6.6.93-14.1,28.19-22.2,38.38-32.1,40.66-8.4,1.95-13.2-2.47-15.9-9.23-21.6,35.87-51.6,76.6-77.4,82.43-13.2,2.97-23.4-4.19-23.4-17.94,0-32.95,45.9-111.28,45.9-135.34Z"/>
    <path d="M690.44,171.45c0,23.78-34.8,70.73-88.5,87.96-1.8,6.79-2.7,13.38-2.7,18.84,0,15.19,7.5,19.46,18.3,16.85,28.2-6.85,57.9-41.11,75-72.78,1.8.38,3.6.76,5.4,1.13-19.5,43.48-57.9,94.47-96.3,104.01-22.5,5.54-35.7-5.63-35.7-30.08,0-47.87,46.2-132.05,96.3-142.75,19.8-4.32,28.2,5.19,28.2,16.82ZM669.74,178.16c0-6.29-2.7-11.09-8.4-9.83-17.4,3.8-43.8,43.74-55.8,78.72,28.2-11.76,64.2-49.18,64.2-68.89Z"/>
    <path d="M649.33,311.48c10.5-21.62,67.8-137.1,67.8-154.57,0-5.35-1.8-5.85-1.8-7.93,0-3.27,5.1-6.16,12.9-7.85,11.7-2.53,19.5-.36,19.5,7.61,0,4.73-4.2,14.5-9.6,26.06,15.6-22.43,35.1-43.36,51.9-46.88,11.7-2.45,20.7,3.57,20.7,15.24,0,26.63-48.9,88.05-48.9,107.41,0,3.54,1.8,5.47,5.1,4.69,14.4-3.51,46.2-50.56,51-61.42,1.8.38,3.6.77,5.4,1.15-6.6,12.6-47.7,89.36-79.2,97.31-11.4,2.79-19.2-3-19.2-15.47,0-34.42,58.8-107.37,58.8-127.63,0-2.64-1.5-3.79-3.9-3.27-6.9,1.48-29.4,20.69-50.4,53.04-7.5,16.82-15.3,32.91-18.6,39.93-11.4,24.09-22.8,48.06-29.1,64.58-10.8,2.67-21.6,5.33-32.4,8Z"/>
    <path d="M947.23,90.26c-18,3.11-36.3,2.72-53.4,2.46-22.2,45.86-63.3,120.03-63.3,141.72,0,3.78,1.5,5.77,4.8,5.02,11.4-2.61,33.3-32.07,46.8-59.28,1.8.4,3.6.8,5.4,1.19-6.6,12.4-42,86.51-73.8,94.22-11.7,2.76-19.5-4.45-19.5-16.18,0-29.25,50.4-118.37,72.9-165.67-14.1,1.56-26.7,4.9-36.9,13.64-6,4.99-10.5,9.99-8.1,12.71.3.23.3.52.6.75-1.5,3.51-3.9,3.72-5.4,1.98-6.6-8.26-1.2-19.02,7.8-26.64,12.6-10.67,30-15.79,49.5-20.03,1.8-4.95,3-8.92,3-11.52,0-5.19-1.8-5.72-1.8-7.74,0-3.17,5.1-5.84,15.6-7.72,9-1.61,16.8.76,16.8,7.35,0,2.87-1.5,7.71-4.2,14.22,25.8-5.22,52.5-11.47,74.1-28.08,19.8-14.89,24-24.39,22.2-29.51-.9-2.41.9-5.2,3.6-6.97,1.2-1.01,2.7-1.5,3.9-1.66,3.9-.53,8.1,1.72,9.9,9.61,4.8,19.84-6,43.08-28.5,59.29-13.2,9.4-27.6,14.34-42,16.83Z"/>
    <path d="M957.43,207.75c0,3.69,1.8,5.61,5.1,4.98,14.4-2.89,42-46.13,46.8-56.37,1.8.45,3.6.9,5.4,1.36-6.6,11.83-43.5,83.21-75,89.95-11.4,2.35-19.2-3.43-19.2-15.45,0-6,2.1-14.45,5.4-24.25-15.3,23.89-36,50.2-54.6,54.39-11.7,2.63-17.7-4.98-17.7-15.41,0-32.78,56.1-101.65,56.1-129.95,0-5.16-1.8-5.68-1.8-7.69,0-3.15,5.4-5.88,14.4-7.52,12.3-2.23,18.3.15,18.3,8.4,0,24.18-51.9,88.74-51.9,111.19,0,4.03,1.8,5.94,5.4,5.18,15.9-3.45,39.6-40.81,47.7-55.93,12.3-25.7,27.3-51.85,36.3-66.89,5.1-8.76,9.9-13.21,20.4-14.86,9.6-1.5,20.7-.08,11.7,10.84-16.2,19.69-52.8,82.28-52.8,108.01Z"/>
    <path d="M998.83,174.45c18-29.34,33.9-65.53,33.9-100.19,0-4.76,4.2-8.42,10.2-9.23,9.9-1.32,12,6.49,8.1,20.94v.28c6.5-.88,13-1.74,19.5-2.57,19.2-2.41,24.3,4.53,24.3,13.35,0,27.3-48.6,77.73-48.6,95.34,0,3.35,1.8,5.29,5.1,4.77,14.4-2.44,46.2-44.53,51-54.36,1.8.51,3.6,1.02,5.4,1.54-6.6,11.3-47.7,80.68-79.2,86.48-11.4,1.98-19.2-3.9-19.2-15.99,0-44.1,69-92.38,69-98.01,0-1.94-4.5-1.64-11.7-.67-12,1.63-19.2,3.5-29.4,5.85-8.1,16.3-18.6,31.66-30.9,50.9-2.5.52-5,1.04-7.5,1.57Z"/>
    <path d="M1214.83,85.74c0,21.57-34.8,58.32-88.5,68.74-1.8,5.97-2.7,11.85-2.7,16.8,0,13.75,7.5,18.29,18.3,17.05,28.2-3.32,57.9-30.3,75-56.33,1.8.61,3.6,1.22,5.4,1.83-19.5,36.24-57.9,77.1-96.3,82.19-22.5,2.92-35.7-8.07-35.7-30.23,0-43.37,46.2-116.3,96.3-119.21,19.8-1.26,28.2,8.67,28.2,19.16ZM1194.13,88.86c0-5.68-2.7-10.4-8.4-10.01-17.4,1.09-43.8,34.26-55.8,64.79,28.2-8,64.2-37.04,64.2-54.79Z"/>
    <path d="M1282.62,78.33c-2.4.52-16.2,4.18-17.1,7.96-.6,2.68,16.5,27.17,16.5,54.82,0,10.38-2.4,21.06-8.4,31.11,17.7-12.35,34.2-35.42,39.9-43.03,1.7.71,3.4,1.43,5.1,2.14-19.5,30.46-48,73.07-93.6,76.37-22.8,1.68-35.1-11.16-35.4-39.11,18.3-22.9,27-35.04,42-60.27,11.1-19.1,27-52.82,48-55,18-1.57,21.3,20.96,3,24.99ZM1234.32,121.64c-11.4,15.58-24,32.87-33,41.95,2.4,11.99,8.7,15.27,16.8,14.7,16.8-1.2,31.8-18.3,37.8-46.31,3.3-15.62.9-41.47-1.5-37.67-6.6,8.48-14.1,19.24-20.1,27.32Z"/>
  </g>
  <g>
    <path d="M562.94,402.67c0-2.75-.9-2.98-.9-4.05,0-1.68,2.55-3.24,6.45-4.23,5.85-1.48,9.75-.49,9.75,3.62,0,10.17-24.3,48.98-24.3,60.34,0,2.14.9,3.13,2.55,2.7,7.2-1.91,21-26.29,23.4-32.08.9.17,1.8.34,2.7.51-3.3,6.77-20.25,46.35-36,50.57-6.45,1.71-11.1-1.83-11.1-8.43,0-16.17,27.45-57.08,27.45-68.95ZM584.54,360.18c3.75-1.39,6.75-.01,7.2,3.52.9,6.31-6.6,16.87-12.75,19.19-3.45,1.33-5.7.07-6.15-3.18-.75-6.83,4.65-16.72,11.7-19.53Z"/>
    <path d="M558.44,474.76c5.25-10.95,33.9-70.55,33.9-79.6,0-2.74-.9-2.96-.9-4.03,0-1.67,2.55-3.24,6.45-4.23,5.85-1.5,9.75-.53,9.75,3.56,0,2.42-2.1,7.51-4.8,13.52,7.8-11.74,17.55-22.86,25.95-25.02,5.85-1.51,10.35,1.4,10.35,7.43,0,13.82-24.45,46.26-24.45,56.14,0,1.82.9,2.79,2.55,2.34,7.2-1.95,23.1-26.73,25.5-32.46.9.16,1.8.33,2.7.49-3.3,6.7-23.85,46.94-39.6,51.25-5.7,1.54-9.6-1.35-9.6-7.73,0-17.52,29.4-55.85,29.4-66.37,0-1.36-.75-1.92-1.95-1.61-3.45.89-14.7,11.2-25.2,28.06-3.75,8.72-7.65,17.05-9.3,20.67-5.7,12.45-11.4,24.79-14.55,33.25-5.4,1.45-10.8,2.89-16.2,4.32Z"/>
    <path d="M805.49,299.09c21.6-5.19,25.35-17.96,25.8-18.07,4.5-1.05,6.3,1.87,6.3,5.65,0,11.6-16.5,26.42-36,31.21-4.05.99-8.25,1.58-12.3,1.7-11.25,5.41-21.9,22.29-33.3,48.23-13.8,31.55-26.4,81.15-59.1,90.21-12.9,3.56-21.75-4.62-21.75-16.31,0-5.99,2.4-12.03,4.35-12.55,1.5-.4,3.9,8.82,14.7,5.88,20.55-5.61,36.3-47.57,52.2-75.99,9.6-17.38,18.15-32.04,27.75-40.15-14.25-1.47-27.45-4.55-39-1.67-17.55,4.36-25.2,21.46-25.2,34.11,0,9.67,4.5,10.89,8.7,9.8,4.8-1.24,5.25-3.58,6.6-3.92.9-.23,1.2.14,1.2.88,0,7.26-8.25,16.67-17.7,19.14-14.85,3.88-21.15-6.87-21.15-16.88,0-27.09,31.35-50.14,55.35-56.01,19.8-4.86,42.75-.48,62.55-5.26Z"/>
    <path d="M831.29,338.3c0,11.62-17.4,34.82-44.25,43.99-.9,3.31-1.35,6.51-1.35,9.15,0,7.33,3.75,9.28,9.15,7.88,14.1-3.69,28.95-20.63,37.5-36.26.9.16,1.8.33,2.7.49-9.75,21.43-28.95,46.52-48.15,51.63-11.25,2.98-17.85-2.17-17.85-13.95,0-23.01,23.1-64.62,48.15-70.68,9.9-2.42,14.1,2.09,14.1,7.76ZM820.94,341.87c0-3.06-1.35-5.35-4.2-4.65-8.7,2.13-21.9,21.94-27.9,39.04,14.1-6.14,32.1-24.8,32.1-34.39Z"/>
    <path d="M880.49,352.44c-3.3,6.49-25.2,45.22-43.2,49.9-7.8,2-11.25-3.36-11.25-11.95,0-33.23,37.95-102.77,63.75-108.32,7.05-1.57,8.85,2.34,8.85,6.07,0,14.43-29.7,52.85-53.25,73.99-1.95,6.57-3,12.5-3,17.14,0,3.34,1.8,5.5,4.8,4.74,8.1-2.07,27.3-24.7,30.6-32.08.9.17,1.8.34,2.7.51ZM848.54,352.81c14.85-15.31,40.05-50.39,40.05-60.26,0-1.58-.9-2.24-3-1.77-8.7,1.93-27.3,34.37-37.05,62.02Z"/>
    <path d="M933.74,314.42c0,11.39-17.4,33.77-44.25,42.35-.9,3.23-1.35,6.36-1.35,8.95,0,7.19,3.75,9.16,9.15,7.87,14.1-3.4,28.95-19.72,37.5-34.88.9.18,1.8.36,2.7.54-9.75,20.81-28.95,45.05-48.15,49.78-11.25,2.76-17.85-2.38-17.85-13.93,0-22.57,23.1-63.09,48.15-68.56,9.9-2.19,14.1,2.33,14.1,7.88ZM923.39,317.71c0-3-1.35-5.27-4.2-4.64-8.7,1.92-21.9,21.13-27.9,37.81,14.1-5.81,32.1-23.77,32.1-33.17Z"/>
    <path d="M1066.33,265.06c-18.6,3.08-38.55-2.75-57.45.77-30.6,5.74-43.2,33.48-52.5,52.21,7.95-11.51,18.45-22.87,27.45-24.67,5.85-1.17,10.35,1.75,10.35,7.38,0,12.89-24.45,42.28-24.45,51.56,0,1.7.9,2.64,2.55,2.28,7.2-1.6,23.1-24.1,25.5-29.34.9.19,1.8.39,2.7.58-3.3,6.1-23.85,42.84-39.6,46.43-5.7,1.27-9.6-1.53-9.6-7.5,0-16.45,29.4-51.35,29.4-61.14,0-1.27-.75-1.83-1.95-1.58-4.2.85-19.35,14.01-31.2,35.27-6,13.31-12,26.69-18,40.12-4.35,1.01-8.7,2.03-13.05,3.06-1.8.43-2.4-.43-1.5-2.22,9.9-19.38,18.75-38.19,22.05-45.76,24.9-56.13,60.15-81.55,100.19-88.45,23.7-4.05,38.85-.07,60.9-3.2,1.2-.18,4.2-.61,4.2,1.87,0,1.94-12.6,18.46-36,22.33Z"/>
    <path d="M1054.04,290.52c0,11.14-17.4,32.28-44.25,39.77-.9,3.13-1.35,6.17-1.35,8.7,0,7.03,3.75,9.07,9.15,7.99,14.1-2.84,28.95-18.23,37.5-32.69.9.21,1.8.42,2.7.63-9.75,19.93-28.95,42.88-48.15,46.87-11.25,2.32-17.85-2.88-17.85-14.17,0-22.05,23.1-60.95,48.15-65.34,9.9-1.76,14.1,2.82,14.1,8.24ZM1043.69,293.33c0-2.93-1.35-5.2-4.2-4.69-8.7,1.55-21.9,19.85-27.9,35.95,14.1-5.22,32.1-22.08,32.1-31.26Z"/>
    <path d="M1096.18,327.05c0,2.62.9,3.58,2.55,3.31,7.2-1.21,21-22.06,23.4-27.05.9.23,1.8.47,2.7.7-3.3,5.78-21.75,40.27-37.5,43.05-5.7.98-9.6-1.93-9.6-7.75,0-2.36.6-5.37,1.8-8.91-6.6,10.28-15,20.68-23.4,22.26-5.7,1.06-9.6-1.81-9.6-10.46,0-23.69,28.5-66.73,47.85-69.56,6.75-1.04,9.75,3.07,9.9,8.43.9-1.38,1.65-2.59,2.25-3.65,2.55-4.24,4.95-6.38,10.2-7.14,4.8-.69,10.35.05,5.85,5.35-8.1,9.6-26.4,39.77-26.4,51.43ZM1096.63,280.02c-10.95,1.61-32.1,35.44-32.1,51.21,0,3.47,1.05,4.81,3,4.47,6-1.08,15.15-15.55,19.5-23.32,4.2-8.58,9.15-17.53,13.35-24.8,1.5-3.68.75-8.26-3.75-7.57Z"/>
    <path d="M1170.43,297.9c-3.3,5.77-25.2,40.12-43.2,42.96-7.8,1.19-11.25-4.16-11.25-12.29,0-31.46,37.95-93.8,63.75-96.15,7.05-.72,8.85,3.18,8.85,6.7,0,13.61-29.7,46.63-53.25,64.48-1.95,6.03-3,11.53-3,15.92,0,3.15,1.8,5.36,4.8,4.92,8.1-1.23,27.3-20.69,30.6-27.3.9.25,1.8.51,2.7.76ZM1138.48,295.08c14.85-13.11,40.05-43.6,40.05-52.89,0-1.49-.9-2.22-3-1.99-8.7.88-27.3,29.65-37.05,54.88Z"/>
    <path d="M1183.33,268.69c-2.8.3-5.6.61-8.4.93-1.2.14-1.8-.34-1.05-1.38,1.05-1.52,2.1-3.05,3.15-4.57,3.2-.35,6.4-.7,9.6-1.04,2.1-3.89,6.45-12.05,6.45-15.97,0-1.9-.9-2.21-.9-3.16,0-1.49,2.55-2.55,6.45-2.92,5.85-.55,9.75.87,9.75,3.97,0,2.84-3,9.04-7.2,16.75,1.75-.17,3.5-.34,5.25-.5,5.25-.49,5.1-.6,5.55-.64,1.5-.13-.6,5.85-4.95,6.26-3.05.29-6.1.58-9.15.89-10.5,18.19-24.75,41.8-24.75,49.43,0,1.9.9,2.74,2.55,2.54,7.35-.93,21.45-14.06,28.2-26.21.9.27,1.8.54,2.7.81-3.3,5.54-23.55,38.86-40.8,41.22-6.45.85-10.8-2.37-10.8-7.97,0-11.36,17.1-38.42,28.35-58.45Z"/>
    <path d="M1213.78,345.79c-29.1,9.64-59.25,28.47-80.85,31.91-19.35,3.07-29.85-6.78-29.85-17.01,0-5.38,3.15-7.7,5.55-8.09,1.8-.29,3.15.18,3.15,1.28,0,6.74,10.8,5.4,16.05,4.6,23.25-3.68,57.6-15.62,87.3-22.13,6.6-26.32,34.2-59,34.2-70.93,0-1.34-.75-1.96-1.95-1.88-3.75.25-16.5,8.93-27.75,24.52-7.05,13.57-14.85,27.33-21,41.15-5.4.6-10.8,1.24-16.2,1.89,5.25-9.46,48.9-87.18,48.9-94.87,0-2.42-.9-2.76-.9-3.7,0-1.48,2.55-2.47,6.45-2.74,5.85-.4,9.75,1.11,9.75,4.72,0,4.25-14.7,29.41-21,40.76,7.95-9.7,18.15-18.76,26.85-19.31,5.85-.37,10.35,3.12,10.35,9.12,0,14.57-26.7,45.54-32.55,68.28,4.2-.66,8.25-1.16,12-1.48,16.65-1.44,31.35.7,31.35,10.28,0,11.68-21.75,22.1-36.75,23.62-15.6,1.53-23.1-6.62-23.1-19.99ZM1244.98,355.37c9-.8,14.55-5.9,14.55-9.78,0-6.7-16.05-5.81-20.85-5.35-3.15.28-6.3.71-9.6,1.43.15,8.87,5.55,14.63,15.9,13.69Z"/>
  </g>
</svg>